<svg width="58" height="46" viewBox="0 0 58 46" fill="none" xmlns="http://www.w3.org/2000/svg">
<path d="M25.5 43.7685C18.7 44.5685 14.3333 38.6018 13 35.7685C21.8 33.3685 28.3333 37.4352 30.5 39.7685C30.1 36.1685 28.3333 33.2685 27.5 32.2685C20.7 27.0685 7 33.7685 1 37.7685C14 35.7685 18 49.2685 25.5 43.7685Z" fill="#435151" stroke="#435151"/>
<path d="M35.4432 32.9643C37.4852 26.429 44.7137 24.8744 47.8445 24.8121C46.4481 33.826 40.071 38.1336 37.057 39.1607C40.5073 40.2632 43.8756 39.8324 45.1285 39.4792C52.6491 35.3902 52.117 20.1489 50.9109 13.0394C47.4368 25.7252 33.479 23.8735 35.4432 32.9643Z" fill="#435151" stroke="#435151"/>
<path d="M10.3157 17.5523C19.7257 11.3523 24.8157 21.6425 34.4556 17.6571C32.8748 20.1839 26.8132 24.4196 12.9173 18.4013L10.3157 17.5523Z" fill="#435151" stroke="#435151"/>
<path d="M31.9024 31.5268C23.6233 21.5109 32.2795 13.9178 26.0757 3.27994C28.8964 4.72573 34.4624 11.1391 32.0809 28.349L31.9024 31.5268Z" fill="#435151" stroke="#435151"/>
<path d="M27.7351 2.95065C15.8436 8.812 20.7679 19.2104 10.4695 26.4913C13.6497 26.3078 21.0084 22.7948 26.4881 5.95382L27.7351 2.95065Z" fill="#435151" stroke="#435151"/>
<circle cx="21.5" cy="38.8691" r="1.5" fill="#435151"/>
<circle cx="45.5" cy="14.8691" r="1.5" fill="#435151"/>
<circle cx="41.5" cy="30.8691" r="1.5" fill="#435151"/>
</svg>
