<svg width="180" height="45" viewBox="0 0 180 45" fill="none" xmlns="http://www.w3.org/2000/svg">
<path d="M25.5 42.7685C18.7 43.5685 14.3333 37.6018 13 34.7685C21.8 32.3685 28.3333 36.4352 30.5 38.7685C30.1 35.1685 28.3333 32.2685 27.5 31.2685C20.7 26.0685 7 32.7685 1 36.7685C14 34.7685 18 48.2685 25.5 42.7685Z" fill="#435151" stroke="#435151"/>
<path d="M35.4432 31.9643C37.4852 25.429 44.7137 23.8744 47.8445 23.8121C46.4481 32.826 40.071 37.1336 37.057 38.1607C40.5073 39.2632 43.8756 38.8324 45.1285 38.4792C52.6491 34.3902 52.117 19.1489 50.9109 12.0394C47.4368 24.7252 33.479 22.8735 35.4432 31.9643Z" fill="#435151" stroke="#435151"/>
<path d="M10.3157 16.5523C19.7257 10.3523 24.8157 20.6425 34.4556 16.6571C32.8748 19.1839 26.8132 23.4196 12.9173 17.4013L10.3157 16.5523Z" fill="#435151" stroke="#435151"/>
<path d="M31.9024 30.5268C23.6233 20.5109 32.2795 12.9178 26.0757 2.27994C28.8964 3.72573 34.4624 10.1391 32.0809 27.349L31.9024 30.5268Z" fill="#435151" stroke="#435151"/>
<path d="M27.7351 1.95065C15.8436 7.812 20.7679 18.2104 10.4695 25.4913C13.6497 25.3078 21.0084 21.7948 26.4881 4.95382L27.7351 1.95065Z" fill="#435151" stroke="#435151"/>
<circle cx="21.5" cy="37.8691" r="1.5" fill="#435151"/>
<circle cx="45.5" cy="13.8691" r="1.5" fill="#435151"/>
<circle cx="41.5" cy="29.8691" r="1.5" fill="#435151"/>
<path d="M81.7459 21.4079C82.7219 21.6159 83.5059 22.1039 84.0979 22.8719C84.6899 23.6239 84.9859 24.4879 84.9859 25.4639C84.9859 26.8719 84.4899 27.9919 83.4979 28.8239C82.5219 29.6399 81.1539 30.0479 79.3939 30.0479H71.5459V13.1999H79.1299C80.8419 13.1999 82.1779 13.5919 83.1379 14.3759C84.1139 15.1599 84.6019 16.2239 84.6019 17.5679C84.6019 18.5599 84.3379 19.3839 83.8099 20.0399C83.2979 20.6959 82.6099 21.1519 81.7459 21.4079ZM75.6499 20.0159H78.3379C79.0099 20.0159 79.5219 19.8719 79.8739 19.5839C80.2419 19.2799 80.4259 18.8399 80.4259 18.2639C80.4259 17.6879 80.2419 17.2479 79.8739 16.9439C79.5219 16.6399 79.0099 16.4879 78.3379 16.4879H75.6499V20.0159ZM78.6739 26.7359C79.3619 26.7359 79.8899 26.5839 80.2579 26.2799C80.6419 25.9599 80.8339 25.5039 80.8339 24.9119C80.8339 24.3199 80.6339 23.8559 80.2339 23.5199C79.8499 23.1839 79.3139 23.0159 78.6259 23.0159H75.6499V26.7359H78.6739ZM100.59 16.6559V30.0479H96.4862V28.2239C96.0702 28.8159 95.5022 29.2959 94.7822 29.6639C94.0782 30.0159 93.2942 30.1919 92.4302 30.1919C91.4062 30.1919 90.5022 29.9679 89.7182 29.5199C88.9342 29.0559 88.3262 28.3919 87.8942 27.5279C87.4622 26.6639 87.2462 25.6479 87.2462 24.4799V16.6559H91.3262V23.9279C91.3262 24.8239 91.5582 25.5199 92.0222 26.0159C92.4862 26.5119 93.1102 26.7599 93.8942 26.7599C94.6942 26.7599 95.3262 26.5119 95.7902 26.0159C96.2542 25.5199 96.4862 24.8239 96.4862 23.9279V16.6559H100.59ZM111.722 30.0479L107.642 24.4319V30.0479H103.538V12.2879H107.642V22.1039L111.698 16.6559H116.762L111.194 23.3759L116.81 30.0479H111.722ZM124.398 26.2079L127.302 16.6559H131.67L126.918 30.0479H121.854L117.102 16.6559H121.494L124.398 26.2079ZM132.581 23.3279C132.581 21.9519 132.837 20.7439 133.349 19.7039C133.877 18.6639 134.589 17.8639 135.485 17.3039C136.381 16.7439 137.381 16.4639 138.485 16.4639C139.429 16.4639 140.253 16.6559 140.957 17.0399C141.677 17.4239 142.229 17.9279 142.613 18.5519V16.6559H146.717V30.0479H142.613V28.1519C142.213 28.7759 141.653 29.2799 140.933 29.6639C140.229 30.0479 139.405 30.2399 138.461 30.2399C137.373 30.2399 136.381 29.9599 135.485 29.3999C134.589 28.8239 133.877 28.0159 133.349 26.9759C132.837 25.9199 132.581 24.7039 132.581 23.3279ZM142.613 23.3519C142.613 22.3279 142.325 21.5199 141.749 20.9279C141.189 20.3359 140.501 20.0399 139.685 20.0399C138.869 20.0399 138.173 20.3359 137.597 20.9279C137.037 21.5039 136.757 22.3039 136.757 23.3279C136.757 24.3519 137.037 25.1679 137.597 25.7759C138.173 26.3679 138.869 26.6639 139.685 26.6639C140.501 26.6639 141.189 26.3679 141.749 25.7759C142.325 25.1839 142.613 24.3759 142.613 23.3519ZM162.31 23.1359C162.31 23.5199 162.286 23.9199 162.238 24.3359H152.95C153.014 25.1679 153.278 25.8079 153.742 26.2559C154.222 26.6879 154.806 26.9039 155.494 26.9039C156.518 26.9039 157.23 26.4719 157.63 25.6079H161.998C161.774 26.4879 161.366 27.2799 160.774 27.9839C160.198 28.6879 159.47 29.2399 158.59 29.6399C157.71 30.0399 156.726 30.2399 155.638 30.2399C154.326 30.2399 153.158 29.9599 152.134 29.3999C151.11 28.8399 150.31 28.0399 149.734 26.9999C149.158 25.9599 148.87 24.7439 148.87 23.3519C148.87 21.9599 149.15 20.7439 149.71 19.7039C150.286 18.6639 151.086 17.8639 152.11 17.3039C153.134 16.7439 154.31 16.4639 155.638 16.4639C156.934 16.4639 158.086 16.7359 159.094 17.2799C160.102 17.8239 160.886 18.5999 161.446 19.6079C162.022 20.6159 162.31 21.7919 162.31 23.1359ZM158.11 22.0559C158.11 21.3519 157.87 20.7919 157.39 20.3759C156.91 19.9599 156.31 19.7519 155.59 19.7519C154.902 19.7519 154.318 19.9519 153.838 20.3519C153.374 20.7519 153.086 21.3199 152.974 22.0559H158.11ZM163.66 23.3279C163.66 21.9519 163.916 20.7439 164.428 19.7039C164.956 18.6639 165.668 17.8639 166.564 17.3039C167.46 16.7439 168.46 16.4639 169.564 16.4639C170.444 16.4639 171.244 16.6479 171.964 17.0159C172.7 17.3839 173.276 17.8799 173.692 18.5039V12.2879H177.796V30.0479H173.692V28.1279C173.308 28.7679 172.756 29.2799 172.036 29.6639C171.332 30.0479 170.508 30.2399 169.564 30.2399C168.46 30.2399 167.46 29.9599 166.564 29.3999C165.668 28.8239 164.956 28.0159 164.428 26.9759C163.916 25.9199 163.66 24.7039 163.66 23.3279ZM173.692 23.3519C173.692 22.3279 173.404 21.5199 172.828 20.9279C172.268 20.3359 171.58 20.0399 170.764 20.0399C169.948 20.0399 169.252 20.3359 168.676 20.9279C168.116 21.5039 167.836 22.3039 167.836 23.3279C167.836 24.3519 168.116 25.1679 168.676 25.7759C169.252 26.3679 169.948 26.6639 170.764 26.6639C171.58 26.6639 172.268 26.3679 172.828 25.7759C173.404 25.1839 173.692 24.3759 173.692 23.3519Z" fill="#435151"/>
</svg>
