<svg width="32" height="32" viewBox="0 0 32 32" fill="none" xmlns="http://www.w3.org/2000/svg">
<path d="M20.4001 7.39995C19.3867 7.39978 18.4138 7.79745 17.6906 8.50737C16.9675 9.2173 16.552 10.1827 16.5334 11.1959L16.4961 13.2959C16.4939 13.4087 16.4679 13.5197 16.4198 13.6217C16.3717 13.7237 16.3026 13.8144 16.217 13.8878C16.1314 13.9612 16.0312 14.0157 15.923 14.0476C15.8149 14.0796 15.7012 14.0883 15.5894 14.0733L13.5081 13.7906C10.7694 13.4173 8.14544 12.1559 5.62811 10.0586C4.83077 14.4719 6.38811 17.5293 10.1388 19.8879L12.4681 21.3519C12.5788 21.4215 12.6707 21.5171 12.7359 21.6304C12.8011 21.7437 12.8375 21.8713 12.842 22.0019C12.8464 22.1326 12.8188 22.2623 12.7616 22.3798C12.7043 22.4973 12.6191 22.599 12.5134 22.6759L10.3908 24.2266C11.6534 24.3053 12.8521 24.2493 13.8468 24.0519C20.1374 22.7959 24.3201 18.0626 24.3201 10.2546C24.3201 9.61728 22.9708 7.39995 20.4001 7.39995ZM13.8668 11.1466C13.89 9.86135 14.292 8.61151 15.0222 7.55358C15.7524 6.49565 16.7785 5.67664 17.972 5.19911C19.1655 4.72157 20.4733 4.60672 21.7318 4.86895C22.9902 5.13117 24.1433 5.75881 25.0468 6.67328C25.9948 6.66662 26.8014 6.90662 28.6054 5.81328C28.1588 7.99995 27.9388 8.94928 26.9868 10.2546C26.9868 20.4439 20.7241 25.3986 14.3694 26.6666C10.0121 27.5359 3.67611 26.108 1.86011 24.212C2.78544 24.1399 6.54544 23.7359 8.71877 22.1453C6.88011 20.9333 -0.438559 16.6266 4.37077 5.04795C6.62811 7.68395 8.91744 9.47862 11.2374 10.4306C12.7814 11.0639 13.1601 11.0506 13.8681 11.1479L13.8668 11.1466Z" fill="#1A3237"/>
</svg>
