<svg width="32" height="32" viewBox="0 0 32 32" fill="none" xmlns="http://www.w3.org/2000/svg">
<path d="M17.3332 26.584C20.0229 26.2417 22.4814 24.8881 24.2089 22.7983C25.9365 20.7085 26.8035 18.0393 26.6337 15.3333C26.4639 12.6272 25.2701 10.0873 23.2948 8.2298C21.3196 6.37232 18.7112 5.33665 15.9998 5.33329C13.2851 5.33127 10.6718 6.36441 8.69229 8.2222C6.71281 10.08 5.51616 12.6226 5.34616 15.332C5.17617 18.0414 6.04562 20.7137 7.77736 22.8043C9.50911 24.895 11.9728 26.2466 14.6665 26.584V18.6666H11.9998V16H14.6665V13.7946C14.6665 12.012 14.8532 11.3653 15.1998 10.7133C15.5413 10.0682 16.0691 9.54088 16.7145 9.19996C17.2238 8.92663 17.8572 8.76263 18.9638 8.69196C19.4025 8.66396 19.9705 8.69863 20.6678 8.79863V11.332H19.9998C18.7772 11.332 18.2718 11.3893 17.9705 11.5506C17.7907 11.6431 17.6443 11.7895 17.5518 11.9693C17.3918 12.2706 17.3332 12.5693 17.3332 13.7933V16H20.6665L19.9998 18.6666H17.3332V26.584ZM15.9998 29.3333C8.63584 29.3333 2.6665 23.364 2.6665 16C2.6665 8.63596 8.63584 2.66663 15.9998 2.66663C23.3638 2.66663 29.3332 8.63596 29.3332 16C29.3332 23.364 23.3638 29.3333 15.9998 29.3333Z" fill="#1A3237"/>
</svg>
