<svg width="32" height="32" viewBox="0 0 32 32" fill="none" xmlns="http://www.w3.org/2000/svg">
<path d="M16.0001 12C14.9392 12 13.9218 12.4214 13.1717 13.1715C12.4215 13.9217 12.0001 14.9391 12.0001 16C12.0001 17.0608 12.4215 18.0782 13.1717 18.8284C13.9218 19.5785 14.9392 20 16.0001 20C17.0609 20 18.0784 19.5785 18.8285 18.8284C19.5787 18.0782 20.0001 17.0608 20.0001 16C20.0001 14.9391 19.5787 13.9217 18.8285 13.1715C18.0784 12.4214 17.0609 12 16.0001 12ZM16.0001 9.33329C17.7682 9.33329 19.4639 10.0357 20.7141 11.2859C21.9644 12.5362 22.6667 14.2318 22.6667 16C22.6667 17.7681 21.9644 19.4638 20.7141 20.714C19.4639 21.9642 17.7682 22.6666 16.0001 22.6666C14.232 22.6666 12.5363 21.9642 11.286 20.714C10.0358 19.4638 9.33342 17.7681 9.33342 16C9.33342 14.2318 10.0358 12.5362 11.286 11.2859C12.5363 10.0357 14.232 9.33329 16.0001 9.33329ZM24.6667 8.99996C24.6667 9.44199 24.4912 9.86591 24.1786 10.1785C23.866 10.491 23.4421 10.6666 23.0001 10.6666C22.5581 10.6666 22.1341 10.491 21.8216 10.1785C21.509 9.86591 21.3334 9.44199 21.3334 8.99996C21.3334 8.55793 21.509 8.13401 21.8216 7.82145C22.1341 7.50889 22.5581 7.33329 23.0001 7.33329C23.4421 7.33329 23.866 7.50889 24.1786 7.82145C24.4912 8.13401 24.6667 8.55793 24.6667 8.99996ZM16.0001 5.33329C12.7014 5.33329 12.1627 5.34263 10.6281 5.41063C9.58275 5.45996 8.88141 5.59996 8.23075 5.85329C7.65208 6.07729 7.23475 6.34529 6.79075 6.79063C6.37342 7.19382 6.05255 7.68607 5.85208 8.23063C5.59875 8.88396 5.45875 9.58396 5.41075 10.628C5.34141 12.1 5.33341 12.6146 5.33341 16C5.33341 19.2986 5.34275 19.8373 5.41075 21.372C5.46008 22.416 5.60008 23.1186 5.85208 23.768C6.07875 24.348 6.34541 24.7653 6.78808 25.208C7.23741 25.656 7.65475 25.924 8.22808 26.1453C8.88675 26.4 9.58808 26.5413 10.6281 26.5893C12.1001 26.6586 12.6147 26.6666 16.0001 26.6666C19.2987 26.6666 19.8374 26.6573 21.3721 26.5893C22.4147 26.54 23.1174 26.4 23.7681 26.148C24.3454 25.9226 24.7654 25.6546 25.2081 25.212C25.6574 24.7626 25.9254 24.3453 26.1467 23.772C26.4001 23.1146 26.5414 22.412 26.5894 21.372C26.6587 19.9 26.6667 19.3853 26.6667 16C26.6667 12.7013 26.6574 12.1626 26.5894 10.628C26.5401 9.58529 26.4001 8.88129 26.1467 8.23063C25.9458 7.68663 25.6255 7.19457 25.2094 6.79063C24.8064 6.37309 24.3141 6.05218 23.7694 5.85196C23.1161 5.59863 22.4147 5.45863 21.3721 5.41063C19.9001 5.34129 19.3854 5.33329 16.0001 5.33329ZM16.0001 2.66663C19.6227 2.66663 20.0747 2.67996 21.4961 2.74663C22.9161 2.81329 23.8827 3.03596 24.7334 3.36663C25.6134 3.70529 26.3547 4.16396 27.0961 4.90396C27.7741 5.57049 28.2987 6.37674 28.6334 7.26663C28.9627 8.11596 29.1868 9.08396 29.2534 10.504C29.3161 11.9253 29.3334 12.3773 29.3334 16C29.3334 19.6226 29.3201 20.0746 29.2534 21.496C29.1868 22.916 28.9627 23.8826 28.6334 24.7333C28.2997 25.6237 27.7749 26.4301 27.0961 27.096C26.4294 27.7737 25.6232 28.2983 24.7334 28.6333C23.8841 28.9626 22.9161 29.1866 21.4961 29.2533C20.0747 29.316 19.6227 29.3333 16.0001 29.3333C12.3774 29.3333 11.9254 29.32 10.5041 29.2533C9.08408 29.1866 8.11741 28.9626 7.26675 28.6333C6.37652 28.2993 5.57012 27.7746 4.90408 27.096C4.22596 26.4295 3.70132 25.6233 3.36675 24.7333C3.03608 23.884 2.81341 22.916 2.74675 21.496C2.68408 20.0746 2.66675 19.6226 2.66675 16C2.66675 12.3773 2.68008 11.9253 2.74675 10.504C2.81341 9.08263 3.03608 8.11729 3.36675 7.26663C3.7004 6.3762 4.22515 5.56972 4.90408 4.90396C5.57031 4.2256 6.37665 3.70093 7.26675 3.36663C8.11741 3.03596 9.08275 2.81329 10.5041 2.74663C11.9254 2.68396 12.3774 2.66663 16.0001 2.66663Z" fill="#1A3237"/>
</svg>
