<svg width="204" height="45" viewBox="0 0 204 45" fill="none" xmlns="http://www.w3.org/2000/svg">
<path d="M25.5 42.7685C18.7 43.5685 14.3333 37.6018 13 34.7685C21.8 32.3685 28.3333 36.4352 30.5 38.7685C30.1 35.1685 28.3333 32.2685 27.5 31.2685C20.7 26.0685 7 32.7685 1 36.7685C14 34.7685 18 48.2685 25.5 42.7685Z" fill="#435151" stroke="#435151"/>
<path d="M35.4432 31.9643C37.4852 25.429 44.7137 23.8744 47.8445 23.8121C46.4481 32.826 40.071 37.1336 37.057 38.1607C40.5073 39.2632 43.8756 38.8324 45.1285 38.4792C52.6491 34.3902 52.117 19.1489 50.9109 12.0394C47.4368 24.7252 33.479 22.8735 35.4432 31.9643Z" fill="#435151" stroke="#435151"/>
<path d="M10.3157 16.5523C19.7257 10.3523 24.8157 20.6425 34.4556 16.6571C32.8748 19.1839 26.8132 23.4196 12.9173 17.4013L10.3157 16.5523Z" fill="#435151" stroke="#435151"/>
<path d="M31.9024 30.5268C23.6233 20.5109 32.2795 12.9178 26.0757 2.27994C28.8964 3.72573 34.4624 10.1391 32.0809 27.349L31.9024 30.5268Z" fill="#435151" stroke="#435151"/>
<path d="M27.7351 1.95065C15.8436 7.812 20.7679 18.2104 10.4695 25.4913C13.6497 25.3078 21.0084 21.7948 26.4881 4.95382L27.7351 1.95065Z" fill="#435151" stroke="#435151"/>
<circle cx="21.5" cy="37.8691" r="1.5" fill="#435151"/>
<circle cx="45.5" cy="13.8691" r="1.5" fill="#435151"/>
<circle cx="41.5" cy="29.8691" r="1.5" fill="#435151"/>
<path d="M77.5715 30.2159C76.3395 30.2159 75.2355 30.0159 74.2595 29.6159C73.2835 29.2159 72.4995 28.6239 71.9075 27.8399C71.3315 27.0559 71.0275 26.1119 70.9955 25.0079H75.3635C75.4275 25.6319 75.6435 26.1119 76.0115 26.4479C76.3795 26.7679 76.8595 26.9279 77.4515 26.9279C78.0595 26.9279 78.5395 26.7919 78.8915 26.5199C79.2435 26.2319 79.4195 25.8399 79.4195 25.3439C79.4195 24.9279 79.2755 24.5839 78.9875 24.3119C78.7155 24.0399 78.3715 23.8159 77.9555 23.6399C77.5555 23.4639 76.9795 23.2639 76.2275 23.0399C75.1395 22.7039 74.2515 22.3679 73.5635 22.0319C72.8755 21.6959 72.2835 21.1999 71.7875 20.5439C71.2915 19.8879 71.0435 19.0319 71.0435 17.9759C71.0435 16.4079 71.6115 15.1839 72.7475 14.3039C73.8835 13.4079 75.3635 12.9599 77.1875 12.9599C79.0435 12.9599 80.5395 13.4079 81.6755 14.3039C82.8115 15.1839 83.4195 16.4159 83.4995 17.9999H79.0595C79.0275 17.4559 78.8275 17.0319 78.4595 16.7279C78.0915 16.4079 77.6195 16.2479 77.0435 16.2479C76.5475 16.2479 76.1475 16.3839 75.8435 16.6559C75.5395 16.9119 75.3875 17.2879 75.3875 17.7839C75.3875 18.3279 75.6435 18.7519 76.1555 19.0559C76.6675 19.3599 77.4675 19.6879 78.5555 20.0399C79.6435 20.4079 80.5235 20.7599 81.1955 21.0959C81.8835 21.4319 82.4755 21.9199 82.9715 22.5599C83.4675 23.1999 83.7155 24.0239 83.7155 25.0319C83.7155 25.9919 83.4675 26.8639 82.9715 27.6479C82.4915 28.4319 81.7875 29.0559 80.8595 29.5199C79.9315 29.9839 78.8355 30.2159 77.5715 30.2159ZM103.329 16.5119C104.993 16.5119 106.313 17.0159 107.289 18.0239C108.281 19.0319 108.777 20.4319 108.777 22.2239V30.0479H104.697V22.7759C104.697 21.9119 104.465 21.2479 104.001 20.7839C103.553 20.3039 102.929 20.0639 102.129 20.0639C101.329 20.0639 100.697 20.3039 100.233 20.7839C99.7852 21.2479 99.5612 21.9119 99.5612 22.7759V30.0479H95.4812V22.7759C95.4812 21.9119 95.2492 21.2479 94.7852 20.7839C94.3372 20.3039 93.7132 20.0639 92.9132 20.0639C92.1132 20.0639 91.4812 20.3039 91.0172 20.7839C90.5692 21.2479 90.3452 21.9119 90.3452 22.7759V30.0479H86.2412V16.6559H90.3452V18.3359C90.7612 17.7759 91.3052 17.3359 91.9772 17.0159C92.6492 16.6799 93.4092 16.5119 94.2572 16.5119C95.2652 16.5119 96.1612 16.7279 96.9452 17.1599C97.7452 17.5919 98.3692 18.2079 98.8172 19.0079C99.2812 18.2719 99.9132 17.6719 100.713 17.2079C101.513 16.7439 102.385 16.5119 103.329 16.5119ZM110.831 23.3279C110.831 21.9519 111.087 20.7439 111.599 19.7039C112.127 18.6639 112.839 17.8639 113.735 17.3039C114.631 16.7439 115.631 16.4639 116.735 16.4639C117.679 16.4639 118.503 16.6559 119.207 17.0399C119.927 17.4239 120.479 17.9279 120.863 18.5519V16.6559H124.967V30.0479H120.863V28.1519C120.463 28.7759 119.903 29.2799 119.183 29.6639C118.479 30.0479 117.655 30.2399 116.711 30.2399C115.623 30.2399 114.631 29.9599 113.735 29.3999C112.839 28.8239 112.127 28.0159 111.599 26.9759C111.087 25.9199 110.831 24.7039 110.831 23.3279ZM120.863 23.3519C120.863 22.3279 120.575 21.5199 119.999 20.9279C119.439 20.3359 118.751 20.0399 117.935 20.0399C117.119 20.0399 116.423 20.3359 115.847 20.9279C115.287 21.5039 115.007 22.3039 115.007 23.3279C115.007 24.3519 115.287 25.1679 115.847 25.7759C116.423 26.3679 117.119 26.6639 117.935 26.6639C118.751 26.6639 119.439 26.3679 119.999 25.7759C120.575 25.1839 120.863 24.3759 120.863 23.3519ZM132.04 18.8879C132.52 18.1519 133.12 17.5759 133.84 17.1599C134.56 16.7279 135.36 16.5119 136.24 16.5119V20.8559H135.112C134.088 20.8559 133.32 21.0799 132.808 21.5279C132.296 21.9599 132.04 22.7279 132.04 23.8319V30.0479H127.936V16.6559H132.04V18.8879ZM145.666 26.5679V30.0479H143.578C142.09 30.0479 140.93 29.6879 140.098 28.9679C139.266 28.2319 138.85 27.0399 138.85 25.3919V20.0639H137.218V16.6559H138.85V13.3919H142.954V16.6559H145.642V20.0639H142.954V25.4399C142.954 25.8399 143.05 26.1279 143.242 26.3039C143.434 26.4799 143.754 26.5679 144.202 26.5679H145.666ZM163.526 27.0719H157.238L156.23 30.0479H151.934L158.03 13.1999H162.782L168.878 30.0479H164.534L163.526 27.0719ZM162.47 23.9039L160.382 17.7359L158.318 23.9039H162.47ZM180.933 21.4079C181.909 21.6159 182.693 22.1039 183.285 22.8719C183.877 23.6239 184.173 24.4879 184.173 25.4639C184.173 26.8719 183.677 27.9919 182.685 28.8239C181.709 29.6399 180.341 30.0479 178.581 30.0479H170.733V13.1999H178.317C180.029 13.1999 181.365 13.5919 182.325 14.3759C183.301 15.1599 183.789 16.2239 183.789 17.5679C183.789 18.5599 183.525 19.3839 182.997 20.0399C182.485 20.6959 181.797 21.1519 180.933 21.4079ZM174.837 20.0159H177.525C178.197 20.0159 178.709 19.8719 179.061 19.5839C179.429 19.2799 179.613 18.8399 179.613 18.2639C179.613 17.6879 179.429 17.2479 179.061 16.9439C178.709 16.6399 178.197 16.4879 177.525 16.4879H174.837V20.0159ZM177.861 26.7359C178.549 26.7359 179.077 26.5839 179.445 26.2799C179.829 25.9599 180.021 25.5039 180.021 24.9119C180.021 24.3199 179.821 23.8559 179.421 23.5199C179.037 23.1839 178.501 23.0159 177.813 23.0159H174.837V26.7359H177.861ZM185.858 21.5999C185.858 19.9359 186.218 18.4559 186.938 17.1599C187.658 15.8479 188.658 14.8319 189.938 14.1119C191.234 13.3759 192.698 13.0079 194.33 13.0079C196.33 13.0079 198.042 13.5359 199.466 14.5919C200.89 15.6479 201.842 17.0879 202.322 18.9119H197.81C197.474 18.2079 196.994 17.6719 196.37 17.3039C195.762 16.9359 195.066 16.7519 194.282 16.7519C193.018 16.7519 191.994 17.1919 191.21 18.0719C190.426 18.9519 190.034 20.1279 190.034 21.5999C190.034 23.0719 190.426 24.2479 191.21 25.1279C191.994 26.0079 193.018 26.4479 194.282 26.4479C195.066 26.4479 195.762 26.2639 196.37 25.8959C196.994 25.5279 197.474 24.9919 197.81 24.2879H202.322C201.842 26.1119 200.89 27.5519 199.466 28.6079C198.042 29.6479 196.33 30.1679 194.33 30.1679C192.698 30.1679 191.234 29.8079 189.938 29.0879C188.658 28.3519 187.658 27.3359 186.938 26.0399C186.218 24.7439 185.858 23.2639 185.858 21.5999Z" fill="#435151"/>
</svg>
